<svg id="Layer_1" data-name="Layer 1" xmlns="http://www.w3.org/2000/svg" xmlns:xlink="http://www.w3.org/1999/xlink" viewBox="0 0 614.27 614.27"><defs><style>.cls-1{fill:#001233;}.cls-2{fill:url(#linear-gradient);}.cls-3{fill:url(#linear-gradient-2);}.cls-4{fill:url(#linear-gradient-3);}.cls-5{fill:url(#linear-gradient-4);}.cls-6{fill:url(#linear-gradient-5);}</style><linearGradient id="linear-gradient" x1="215.37" y1="310.22" x2="374.18" y2="310.22" gradientUnits="userSpaceOnUse"><stop offset="0" stop-color="#fff" stop-opacity="0"/><stop offset="1" stop-color="#fff"/></linearGradient><linearGradient id="linear-gradient-2" x1="288.3" y1="340.55" x2="219.75" y2="300.8" gradientUnits="userSpaceOnUse"><stop offset="0" stop-color="#d43933" stop-opacity="0"/><stop offset="0.18" stop-color="#d43933" stop-opacity="0.28"/><stop offset="0.37" stop-color="#d43933" stop-opacity="0.54"/><stop offset="0.55" stop-color="#d43933" stop-opacity="0.74"/><stop offset="0.7" stop-color="#d43933" stop-opacity="0.88"/><stop offset="0.84" stop-color="#d43933" stop-opacity="0.97"/><stop offset="0.93" stop-color="#d43933"/></linearGradient><linearGradient id="linear-gradient-3" x1="339.04" y1="309.55" x2="568.26" y2="309.55" gradientUnits="userSpaceOnUse"><stop offset="0" stop-color="#fff" stop-opacity="0"/><stop offset="0.05" stop-color="#fff" stop-opacity="0.07"/><stop offset="0.26" stop-color="#fff" stop-opacity="0.35"/><stop offset="0.45" stop-color="#fff" stop-opacity="0.58"/><stop offset="0.63" stop-color="#fff" stop-opacity="0.76"/><stop offset="0.78" stop-color="#fff" stop-opacity="0.89"/><stop offset="0.91" stop-color="#fff" stop-opacity="0.97"/><stop offset="1" stop-color="#fff"/></linearGradient><linearGradient id="linear-gradient-4" x1="84.69" y1="349.81" x2="201.17" y2="349.81" gradientTransform="matrix(1.1, -0.02, -0.02, 1, 195.46, -40.42)" gradientUnits="userSpaceOnUse"><stop offset="0" stop-color="#d43933" stop-opacity="0"/><stop offset="1" stop-color="#d43933"/></linearGradient><linearGradient id="linear-gradient-5" x1="41.74" y1="313.21" x2="158.97" y2="307.24" gradientUnits="userSpaceOnUse"><stop offset="0" stop-color="#fff" stop-opacity="0.2"/><stop offset="1" stop-color="#fff"/></linearGradient></defs><path class="cls-1" d="M614.27,144.43V469.9A144.36,144.36,0,0,1,469.84,614.27H144.43a142,142,0,0,1-26.09-2.37,140,140,0,0,1-30.73-9.26A144.21,144.21,0,0,1,0,469.9V144.43A144.43,144.43,0,0,1,144.43,0H469.84A144.43,144.43,0,0,1,614.27,144.43Z"/><path class="cls-2" d="M388,294.81l-58.88-58.36a11.68,11.68,0,0,0-16.52.08L254.2,295.4a42.76,42.76,0,0,0,55.72,64.53c-2.44,7.53-5.95,14.05-10.1,18.72-2.11,2.37-1.26,8.59,1.17,8.6l40.06.13c2.43,0,3.32-6.21,1.23-8.6-4.33-4.92-8.11-11.86-10.68-19.87A42.75,42.75,0,0,0,388,294.81Z"/><path class="cls-3" d="M224.44,383.55l63.67-66.77a47.58,47.58,0,1,0-68.87-65.67l-7,7.3-7.3-7a47.58,47.58,0,1,0-65.68,68.86L206.06,384a13,13,0,0,0,18.38-.43Z"/><path class="cls-4" d="M528.55,282.35a42.54,42.54,0,1,0-83.58-.17,42.54,42.54,0,1,0,31,75.35c-2.46,8.51-6.26,15.87-10.83,21-2.12,2.39-1.26,8.66,1.19,8.67l40.37.08c2.46,0,3.34-6.26,1.23-8.66-4.62-5.26-8.65-12.8-11.24-21.48a42.54,42.54,0,1,0,31.83-74.81Z"/><path class="cls-5" d="M408,231.36l-54.49,70.1a9.78,9.78,0,0,0-.32,12L403.92,382c4.42,6,14.21,5.84,19-.27l54.49-70.09a9.8,9.8,0,0,0,.32-12L426.94,231.1c-4.42-6-14.22-5.84-19,.26Z"/><path class="cls-6" d="M67.56,359.32h-6a14,14,0,1,0,0,28.06h76.8a45.57,45.57,0,0,0,32.87-77.16,45.57,45.57,0,0,0-32.87-77.15H61.6a14,14,0,1,0,0,28.05h6v98.2Zm28.06-98.2H138.4a17.54,17.54,0,1,1,0,35.07H95.62V261.12Zm0,63.13H138.4a17.54,17.54,0,1,1,0,35.07H95.62V324.25Z"/></svg>